# xmcd
#
# Track frame offsets: 
#        150
#        13707
#        32265
#        49185
#        65707
#        81945
#        98032
#        115790
#        130542
#        142067
#
# Disc length: 2052 seconds
#
# Revision: 2
# Processed by: cddbd v1.5.2PL0 Copyright (c) Steve Scherf et al.
# Submitted via: ExactAudioCopy v1.3
#
DISCID=7f08020a
DTITLE=George Strait - The Road Less Traveled
DYEAR=2001
DGENRE=Country
TTITLE0=She'll Leave You With A Smile
TTITLE1=Run
TTITLE2=Stars On The Water
TTITLE3=Living And Living Well
TTITLE4=The Real Thing
TTITLE5=Don't Tell Me You're Not In Love
TTITLE6=The Road Less Traveled
TTITLE7=The Middle Of Nowhere
TTITLE8=Good Time Charley's
TTITLE9=My Life's Been Grand
EXTD=
EXTT0=
EXTT1=
EXTT2=
EXTT3=
EXTT4=
EXTT5=
EXTT6=
EXTT7=
EXTT8=
EXTT9=
PLAYORDER=
